<?xml version="1.0" standalone="no"?>
<!DOCTYPE svg PUBLIC "-//W3C//DTD SVG 20010904//EN"
 "http://www.w3.org/TR/2001/REC-SVG-20010904/DTD/svg10.dtd">
<svg version="1.0" xmlns="http://www.w3.org/2000/svg"
 width="313.000000pt" height="313.000000pt" viewBox="0 0 313.000000 313.000000"
 preserveAspectRatio="xMidYMid meet">
<metadata>
Created by potrace 1.11, written by Peter Selinger 2001-2013
</metadata>
<g transform="translate(0.000000,313.000000) scale(0.100000,-0.100000)"
fill="#000000" stroke="none">
<path d="M1347 3083 c-2 -1 -26 -5 -53 -7 -27 -3 -49 -5 -49 -6 0 -3 -42 -12
-67 -14 -15 -2 -33 -7 -40 -12 -7 -6 -42 -25 -77 -43 -35 -18 -69 -38 -76 -44
-6 -7 -24 -21 -39 -32 -33 -24 -115 -134 -146 -194 -20 -40 -49 -122 -56 -161
-19 -98 -24 -275 -11 -360 20 -120 106 -311 211 -470 31 -46 56 -87 56 -91 0
-5 -32 -30 -71 -56 -164 -111 -344 -282 -423 -403 -67 -102 -100 -176 -131
-295 -1 -5 -4 -14 -6 -20 -12 -35 -25 -177 -22 -233 3 -74 7 -97 23 -157 6
-22 13 -48 15 -59 2 -10 11 -26 19 -35 8 -9 15 -18 15 -21 0 -9 15 -45 23 -55
5 -5 22 -27 38 -49 57 -74 227 -186 282 -186 11 0 28 -4 38 -10 55 -29 364
-31 455 -2 11 3 23 7 28 8 4 1 8 2 10 4 2 2 16 5 53 13 37 9 149 59 156 71 4
6 8 8 8 3 0 -24 199 133 288 228 88 93 67 105 227 -130 51 -74 118 -142 148
-147 12 -2 155 -3 317 -3 294 0 295 0 298 22 3 22 -34 66 -49 57 -4 -2 -10 0
-13 5 -3 4 -32 21 -63 36 -95 46 -205 125 -257 184 -12 12 -31 33 -42 46 -12
13 -66 79 -120 147 -54 67 -101 125 -104 128 -3 3 -16 17 -28 32 -28 31 -31
24 67 178 217 345 315 470 428 546 32 21 60 41 63 45 3 3 46 25 95 49 89 44
125 71 125 96 0 7 -8 17 -17 22 -10 4 -151 8 -314 7 -315 -1 -321 -2 -339 -50
-8 -21 4 -59 29 -88 25 -30 19 -132 -11 -187 -14 -25 -51 -94 -83 -155 -32
-60 -72 -135 -88 -165 -17 -30 -40 -72 -51 -92 -11 -21 -25 -38 -30 -38 -6 0
-45 47 -88 103 -42 56 -176 232 -297 391 l-221 289 47 33 c27 19 53 37 58 41
6 4 37 28 70 52 33 24 67 51 75 58 163 151 208 204 267 318 94 184 112 411 43
570 -42 97 -128 182 -232 229 -69 31 -79 34 -186 52 -39 6 -171 12 -175 7z
m118 -159 c28 -4 53 -7 56 -6 3 0 28 -16 55 -36 89 -67 126 -177 120 -362 -9
-287 -116 -480 -359 -644 -36 -25 -39 -25 -56 -8 -53 52 -166 248 -193 335
-22 73 -36 135 -43 182 -7 58 -8 179 0 215 3 14 8 41 11 60 10 53 57 140 100
184 43 44 105 75 173 85 48 8 54 8 136 -5z m-331 -1471 c25 -32 52 -66 61 -75
8 -10 15 -21 15 -24 0 -3 19 -29 43 -58 23 -29 51 -65 62 -80 24 -33 102 -137
113 -151 70 -87 342 -456 342 -464 0 -17 -178 -192 -230 -226 -25 -17 -47 -33
-50 -36 -9 -11 -55 -33 -64 -31 -4 2 -14 -2 -20 -7 -18 -15 -123 -41 -146 -36
-11 2 -20 1 -20 -3 0 -4 -19 -6 -42 -5 -24 1 -43 2 -43 3 0 1 -11 3 -25 5
-218 28 -390 232 -416 491 -28 278 79 521 312 714 27 22 52 40 56 40 4 0 27
-26 52 -57z"/>
</g>
</svg>
